<mxfile host="app.diagrams.net" modified="2025-09-30T11:30:00.000Z" agent="5.0" etag="pqr678" version="28.2.5" type="device">
  <diagram name="UC-06 E-Mail Benachrichtigungssystem" id="bpmn-uc06">
    <mxGraphModel dx="1426" dy="743" grid="1" gridSize="10" guides="1" tooltips="1" connect="1" arrows="1" fold="1" page="1" pageScale="1" pageWidth="1169" pageHeight="827" math="0" shadow="0">
      <root>
        <mxCell id="0" />
        <mxCell id="1" parent="0" />
        
        <mxCell id="pool1" value="E-Mail-Benachrichtigungssystem" style="swimlane;html=1;childLayout=stackLayout;resizeParent=1;resizeParentMax=0;horizontal=1;startSize=20;horizontalStack=0;whiteSpace=wrap;" vertex="1" parent="1">
          <mxGeometry x="30" y="40" width="1100" height="600" as="geometry" />
        </mxCell>
        
        <mxCell id="lane1" value="System Events" style="swimlane;html=1;startSize=20;horizontal=0;" vertex="1" parent="pool1">
          <mxGeometry y="20" width="1100" height="120" as="geometry" />
        </mxCell>
        
        <mxCell id="event1" value="Neuer Auftrag" style="ellipse;whiteSpace=wrap;html=1;aspect=fixed;fillColor=#d5e8d4;strokeColor=#82b366;" vertex="1" parent="lane1">
          <mxGeometry x="50" y="35" width="50" height="50" as="geometry" />
        </mxCell>
        
        <mxCell id="event2" value="Status ge채ndert" style="ellipse;whiteSpace=wrap;html=1;aspect=fixed;fillColor=#d5e8d4;strokeColor=#82b366;" vertex="1" parent="lane1">
          <mxGeometry x="150" y="35" width="50" height="50" as="geometry" />
        </mxCell>
        
        <mxCell id="event3" value="Mahnung eingegangen" style="ellipse;whiteSpace=wrap;html=1;aspect=fixed;fillColor=#f8cecc;strokeColor=#b85450;" vertex="1" parent="lane1">
          <mxGeometry x="250" y="35" width="50" height="50" as="geometry" />
        </mxCell>
        
        <mxCell id="event4" value="Dokumente nachgereicht" style="ellipse;whiteSpace=wrap;html=1;aspect=fixed;fillColor=#d5e8d4;strokeColor=#82b366;" vertex="1" parent="lane1">
          <mxGeometry x="350" y="35" width="50" height="50" as="geometry" />
        </mxCell>
        
        <mxCell id="event5" value="System-Wartung" style="ellipse;whiteSpace=wrap;html=1;aspect=fixed;fillColor=#fff2cc;strokeColor=#d6b656;" vertex="1" parent="lane1">
          <mxGeometry x="450" y="35" width="50" height="50" as="geometry" />
        </mxCell>
        
        <mxCell id="lane2" value="E-Mail Service" style="swimlane;html=1;startSize=20;horizontal=0;" vertex="1" parent="pool1">
          <mxGeometry y="140" width="1100" height="200" as="geometry" />
        </mxCell>
        
        <mxCell id="task1" value="Event empfangen" style="rounded=1;whiteSpace=wrap;html=1;fillColor=#e1d5e7;strokeColor=#9673a6;" vertex="1" parent="lane2">
          <mxGeometry x="150" y="30" width="80" height="40" as="geometry" />
        </mxCell>
        
        <mxCell id="gateway1" value="" style="rhombus;whiteSpace=wrap;html=1;fillColor=#fff2cc;strokeColor=#d6b656;" vertex="1" parent="lane2">
          <mxGeometry x="265" y="40" width="30" height="20" as="geometry" />
        </mxCell>
        
        <mxCell id="task2" value="Template ausw채hlen" style="rounded=1;whiteSpace=wrap;html=1;fillColor=#e1d5e7;strokeColor=#9673a6;" vertex="1" parent="lane2">
          <mxGeometry x="320" y="30" width="80" height="40" as="geometry" />
        </mxCell>
        
        <mxCell id="task3" value="Empf채nger ermitteln" style="rounded=1;whiteSpace=wrap;html=1;fillColor=#e1d5e7;strokeColor=#9673a6;" vertex="1" parent="lane2">
          <mxGeometry x="420" y="30" width="80" height="40" as="geometry" />
        </mxCell>
        
        <mxCell id="task4" value="E-Mail generieren" style="rounded=1;whiteSpace=wrap;html=1;fillColor=#e1d5e7;strokeColor=#9673a6;" vertex="1" parent="lane2">
          <mxGeometry x="520" y="30" width="80" height="40" as="geometry" />
        </mxCell>
        
        <mxCell id="task5" value="E-Mail versenden" style="rounded=1;whiteSpace=wrap;html=1;fillColor=#e1d5e7;strokeColor=#9673a6;" vertex="1" parent="lane2">
          <mxGeometry x="620" y="30" width="80" height="40" as="geometry" />
        </mxCell>
        
        <mxCell id="gateway2" value="" style="rhombus;whiteSpace=wrap;html=1;fillColor=#fff2cc;strokeColor=#d6b656;" vertex="1" parent="lane2">
          <mxGeometry x="735" y="40" width="30" height="20" as="geometry" />
        </mxCell>
        
        <mxCell id="task6" value="Retry-Mechanismus" style="rounded=1;whiteSpace=wrap;html=1;fillColor=#fff2cc;strokeColor=#d6b656;" vertex="1" parent="lane2">
          <mxGeometry x="610" y="90" width="80" height="40" as="geometry" />
        </mxCell>
        
        <mxCell id="task7" value="Versand dokumentieren" style="rounded=1;whiteSpace=wrap;html=1;fillColor=#e1d5e7;strokeColor=#9673a6;" vertex="1" parent="lane2">
          <mxGeometry x="800" y="30" width="80" height="40" as="geometry" />
        </mxCell>
        
        <mxCell id="task8" value="Fehler-Behandlung" style="rounded=1;whiteSpace=wrap;html=1;fillColor=#f8cecc;strokeColor=#b85450;" vertex="1" parent="lane2">
          <mxGeometry x="700" y="90" width="80" height="40" as="geometry" />
        </mxCell>
        
        <mxCell id="task9" value="Opt-out pr체fen" style="rounded=1;whiteSpace=wrap;html=1;fillColor=#e1d5e7;strokeColor=#9673a6;" vertex="1" parent="lane2">
          <mxGeometry x="240" y="90" width="80" height="40" as="geometry" />
        </mxCell>
        
        <mxCell id="lane3" value="Benutzer" style="swimlane;html=1;startSize=20;horizontal=0;" vertex="1" parent="pool1">
          <mxGeometry y="340" width="1100" height="130" as="geometry" />
        </mxCell>
        
        <mxCell id="task10" value="E-Mail empfangen" style="rounded=1;whiteSpace=wrap;html=1;fillColor=#dae8fc;strokeColor=#6c8ebf;" vertex="1" parent="lane3">
          <mxGeometry x="800" y="45" width="80" height="40" as="geometry" />
        </mxCell>
        
        <mxCell id="task11" value="Portal aufrufen" style="rounded=1;whiteSpace=wrap;html=1;fillColor=#dae8fc;strokeColor=#6c8ebf;" vertex="1" parent="lane3">
          <mxGeometry x="920" y="45" width="80" height="40" as="geometry" />
        </mxCell>
        
        <mxCell id="lane4" value="Ergebnisse" style="swimlane;html=1;startSize=20;horizontal=0;" vertex="1" parent="pool1">
          <mxGeometry y="470" width="1100" height="130" as="geometry" />
        </mxCell>
        
        <mxCell id="end1" value="E-Mail versendet" style="ellipse;whiteSpace=wrap;html=1;aspect=fixed;fillColor=#d5e8d4;strokeColor=#82b366;strokeWidth=3;" vertex="1" parent="lane4">
          <mxGeometry x="815" y="40" width="50" height="50" as="geometry" />
        </mxCell>
        
        <mxCell id="end2" value="Versand fehlgeschlagen" style="ellipse;whiteSpace=wrap;html=1;aspect=fixed;fillColor=#f8cecc;strokeColor=#b85450;strokeWidth=3;" vertex="1" parent="lane4">
          <mxGeometry x="715" y="40" width="50" height="50" as="geometry" />
        </mxCell>
        
        <mxCell id="end3" value="Benutzer informiert" style="ellipse;whiteSpace=wrap;html=1;aspect=fixed;fillColor=#d5e8d4;strokeColor=#82b366;strokeWidth=3;" vertex="1" parent="lane4">
          <mxGeometry x="935" y="40" width="50" height="50" as="geometry" />
        </mxCell>
        
        <mxCell id="end4" value="Opt-out aktiv" style="ellipse;whiteSpace=wrap;html=1;aspect=fixed;fillColor=#fff2cc;strokeColor=#d6b656;strokeWidth=3;" vertex="1" parent="lane4">
          <mxGeometry x="255" y="40" width="50" height="50" as="geometry" />
        </mxCell>
        
        <mxCell id="flow1" value="" style="edgeStyle=orthogonalEdgeStyle;rounded=0;orthogonalLoop=1;jettySize=auto;html=1;" edge="1" parent="pool1" source="event1" target="task1">
          <mxGeometry relative="1" as="geometry">
            <Array as="points">
              <mxPoint x="75" y="120" />
              <mxPoint x="190" y="120" />
              <mxPoint x="190" y="170" />
            </Array>
          </mxGeometry>
        </mxCell>
        
        <mxCell id="flow2" value="" style="edgeStyle=orthogonalEdgeStyle;rounded=0;orthogonalLoop=1;jettySize=auto;html=1;" edge="1" parent="pool1" source="task1" target="gateway1">
          <mxGeometry relative="1" as="geometry" />
        </mxCell>
        
        <mxCell id="flow3" value="Aktiv" style="edgeStyle=orthogonalEdgeStyle;rounded=0;orthogonalLoop=1;jettySize=auto;html=1;" edge="1" parent="pool1" source="gateway1" target="task2">
          <mxGeometry relative="1" as="geometry" />
        </mxCell>
        
        <mxCell id="flow4" value="Opt-out" style="edgeStyle=orthogonalEdgeStyle;rounded=0;orthogonalLoop=1;jettySize=auto;html=1;" edge="1" parent="pool1" source="gateway1" target="task9">
          <mxGeometry relative="1" as="geometry" />
        </mxCell>
        
        <mxCell id="flow5" value="" style="edgeStyle=orthogonalEdgeStyle;rounded=0;orthogonalLoop=1;jettySize=auto;html=1;" edge="1" parent="pool1" source="task2" target="task3">
          <mxGeometry relative="1" as="geometry" />
        </mxCell>
        
        <mxCell id="flow6" value="" style="edgeStyle=orthogonalEdgeStyle;rounded=0;orthogonalLoop=1;jettySize=auto;html=1;" edge="1" parent="pool1" source="task3" target="task4">
          <mxGeometry relative="1" as="geometry" />
        </mxCell>
        
        <mxCell id="flow7" value="" style="edgeStyle=orthogonalEdgeStyle;rounded=0;orthogonalLoop=1;jettySize=auto;html=1;" edge="1" parent="pool1" source="task4" target="task5">
          <mxGeometry relative="1" as="geometry" />
        </mxCell>
        
        <mxCell id="flow8" value="" style="edgeStyle=orthogonalEdgeStyle;rounded=0;orthogonalLoop=1;jettySize=auto;html=1;" edge="1" parent="pool1" source="task5" target="gateway2">
          <mxGeometry relative="1" as="geometry" />
        </mxCell>
        
        <mxCell id="flow9" value="Erfolg" style="edgeStyle=orthogonalEdgeStyle;rounded=0;orthogonalLoop=1;jettySize=auto;html=1;" edge="1" parent="pool1" source="gateway2" target="task7">
          <mxGeometry relative="1" as="geometry" />
        </mxCell>
        
        <mxCell id="flow10" value="Fehler" style="edgeStyle=orthogonalEdgeStyle;rounded=0;orthogonalLoop=1;jettySize=auto;html=1;" edge="1" parent="pool1" source="gateway2" target="task8">
          <mxGeometry relative="1" as="geometry" />
        </mxCell>
        
        <mxCell id="flow11" value="" style="edgeStyle=orthogonalEdgeStyle;rounded=0;orthogonalLoop=1;jettySize=auto;html=1;" edge="1" parent="pool1" source="task7" target="task10">
          <mxGeometry relative="1" as="geometry">
            <Array as="points">
              <mxPoint x="840" y="340" />
              <mxPoint x="840" y="385" />
            </Array>
          </mxGeometry>
        </mxCell>
        
        <mxCell id="flow12" value="" style="edgeStyle=orthogonalEdgeStyle;rounded=0;orthogonalLoop=1;jettySize=auto;html=1;" edge="1" parent="pool1" source="task10" target="end1">
          <mxGeometry relative="1" as="geometry">
            <Array as="points">
              <mxPoint x="840" y="510" />
            </Array>
          </mxGeometry>
        </mxCell>
        
        <mxCell id="flow13" value="" style="edgeStyle=orthogonalEdgeStyle;rounded=0;orthogonalLoop=1;jettySize=auto;html=1;" edge="1" parent="pool1" source="task10" target="task11">
          <mxGeometry relative="1" as="geometry" />
        </mxCell>
        
        <mxCell id="flow14" value="" style="edgeStyle=orthogonalEdgeStyle;rounded=0;orthogonalLoop=1;jettySize=auto;html=1;" edge="1" parent="pool1" source="task11" target="end3">
          <mxGeometry relative="1" as="geometry">
            <Array as="points">
              <mxPoint x="960" y="510" />
            </Array>
          </mxGeometry>
        </mxCell>
        
        <mxCell id="flow15" value="" style="edgeStyle=orthogonalEdgeStyle;rounded=0;orthogonalLoop=1;jettySize=auto;html=1;" edge="1" parent="pool1" source="task8" target="end2">
          <mxGeometry relative="1" as="geometry">
            <Array as="points">
              <mxPoint x="740" y="510" />
            </Array>
          </mxGeometry>
        </mxCell>
        
        <mxCell id="flow16" value="" style="edgeStyle=orthogonalEdgeStyle;rounded=0;orthogonalLoop=1;jettySize=auto;html=1;" edge="1" parent="pool1" source="task9" target="end4">
          <mxGeometry relative="1" as="geometry">
            <Array as="points">
              <mxPoint x="280" y="510" />
            </Array>
          </mxGeometry>
        </mxCell>
        
        <mxCell id="flow17" value="" style="edgeStyle=orthogonalEdgeStyle;rounded=0;orthogonalLoop=1;jettySize=auto;html=1;" edge="1" parent="pool1" source="event2" target="task1">
          <mxGeometry relative="1" as="geometry">
            <Array as="points">
              <mxPoint x="175" y="120" />
              <mxPoint x="190" y="120" />
              <mxPoint x="190" y="170" />
            </Array>
          </mxGeometry>
        </mxCell>
        
        <mxCell id="flow18" value="" style="edgeStyle=orthogonalEdgeStyle;rounded=0;orthogonalLoop=1;jettySize=auto;html=1;" edge="1" parent="pool1" source="event3" target="task1">
          <mxGeometry relative="1" as="geometry">
            <Array as="points">
              <mxPoint x="275" y="120" />
              <mxPoint x="190" y="120" />
              <mxPoint x="190" y="170" />
            </Array>
          </mxGeometry>
        </mxCell>
        
        <mxCell id="flow19" value="" style="edgeStyle=orthogonalEdgeStyle;rounded=0;orthogonalLoop=1;jettySize=auto;html=1;" edge="1" parent="pool1" source="event4" target="task1">
          <mxGeometry relative="1" as="geometry">
            <Array as="points">
              <mxPoint x="375" y="120" />
              <mxPoint x="190" y="120" />
              <mxPoint x="190" y="170" />
            </Array>
          </mxGeometry>
        </mxCell>
        
        <mxCell id="flow20" value="" style="edgeStyle=orthogonalEdgeStyle;rounded=0;orthogonalLoop=1;jettySize=auto;html=1;" edge="1" parent="pool1" source="event5" target="task1">
          <mxGeometry relative="1" as="geometry">
            <Array as="points">
              <mxPoint x="475" y="120" />
              <mxPoint x="190" y="120" />
              <mxPoint x="190" y="170" />
            </Array>
          </mxGeometry>
        </mxCell>
        
      </root>
    </mxGraphModel>
  </diagram>
</mxfile>
